<svg xmlns="http://www.w3.org/2000/svg" viewBox="0 0 250 250" width="250" height="250">
  <defs>

    <!-- Lotus petal gradient - pink -->
    <linearGradient id="petalPink" x1="0%" y1="0%" x2="100%" y2="100%">
      <stop offset="0%" style="stop-color:#F8BBD0"/>
      <stop offset="50%" style="stop-color:#F48FB1"/>
      <stop offset="100%" style="stop-color:#EC407A"/>
    </linearGradient>

    <!-- Lotus petal gradient - lighter pink -->
    <linearGradient id="petalLight" x1="0%" y1="0%" x2="100%" y2="100%">
      <stop offset="0%" style="stop-color:#FCE4EC"/>
      <stop offset="50%" style="stop-color:#F8BBD0"/>
      <stop offset="100%" style="stop-color:#F48FB1"/>
    </linearGradient>

    <!-- Lotus petal gradient - deep pink -->
    <linearGradient id="petalDeep" x1="0%" y1="100%" x2="100%" y2="0%">
      <stop offset="0%" style="stop-color:#AD1457"/>
      <stop offset="50%" style="stop-color:#E91E63"/>
      <stop offset="100%" style="stop-color:#F48FB1"/>
    </linearGradient>

    <!-- Lotus center gradient -->
    <radialGradient id="lotusCenter" cx="50%" cy="50%" r="50%">
      <stop offset="0%" style="stop-color:#FFF9C4"/>
      <stop offset="100%" style="stop-color:#FFD54F"/>
    </radialGradient>

    <!-- Leaf gradient -->
    <linearGradient id="leafGrad" x1="0%" y1="0%" x2="100%" y2="100%">
      <stop offset="0%" style="stop-color:#81C784"/>
      <stop offset="100%" style="stop-color:#388E3C"/>
    </linearGradient>

    <!-- Sparkle filter -->
    <filter id="glow" x="-50%" y="-50%" width="200%" height="200%">
      <feGaussianBlur stdDeviation="3" result="blur"/>
      <feComposite in="SourceGraphic" in2="blur" operator="over"/>
    </filter>

    <filter id="softGlow" x="-50%" y="-50%" width="200%" height="200%">
      <feGaussianBlur stdDeviation="8" result="blur"/>
      <feComposite in="SourceGraphic" in2="blur" operator="over"/>
    </filter>

    <filter id="shadow">
      <feDropShadow dx="0" dy="4" stdDeviation="6" flood-color="#BF360C" flood-opacity="0.2"/>
    </filter>
  </defs>

  <!-- Rounded square background -->
  

  
  
  

  
  

  
  

  
  
  

  <!-- ============ LOTUS FLOWER ============ -->
  <g filter="url(#shadow)" transform="translate(125, 125)">

    <!-- Back petals (deeper color, spread wider) -->
    <ellipse cx="-65" cy="-15" rx="30" ry="55" fill="url(#petalDeep)" transform="rotate(-35, -65, -15)" opacity="0.8"/>
    <ellipse cx="65" cy="-15" rx="30" ry="55" fill="url(#petalDeep)" transform="rotate(35, 65, -15)" opacity="0.8"/>
    <ellipse cx="-45" cy="-25" rx="26" ry="55" fill="url(#petalPink)" transform="rotate(-20, -45, -25)" opacity="0.9"/>
    <ellipse cx="45" cy="-25" rx="26" ry="55" fill="url(#petalPink)" transform="rotate(20, 45, -25)" opacity="0.9"/>

    <!-- Middle petals -->
    <ellipse cx="-28" cy="-30" rx="24" ry="52" fill="url(#petalPink)" transform="rotate(-10, -28, -30)"/>
    <ellipse cx="28" cy="-30" rx="24" ry="52" fill="url(#petalPink)" transform="rotate(10, 28, -30)"/>

    <!-- Front petals (lighter, more prominent) -->
    <ellipse cx="-12" cy="-35" rx="22" ry="50" fill="url(#petalLight)" transform="rotate(-3, -12, -35)"/>
    <ellipse cx="12" cy="-35" rx="22" ry="50" fill="url(#petalLight)" transform="rotate(3, 12, -35)"/>

    <!-- Center petal -->
    <ellipse cx="0" cy="-38" rx="18" ry="48" fill="url(#petalLight)"/>

    <!-- Petal vein lines for detail -->
    <path d="M0,-85 Q0,-50 0,-5" fill="none" stroke="#F48FB1" stroke-width="1" opacity="0.5"/>
    <path d="M-12,-82 Q-10,-50 -8,-5" fill="none" stroke="#F48FB1" stroke-width="1" opacity="0.4"/>
    <path d="M12,-82 Q10,-50 8,-5" fill="none" stroke="#F48FB1" stroke-width="1" opacity="0.4"/>

    <!-- Lotus center (golden) -->
    <circle cx="0" cy="-15" r="14" fill="url(#lotusCenter)" stroke="#FFB300" stroke-width="1.5"/>

    <!-- Center dots (seeds) -->
    <circle cx="-4" cy="-18" r="2" fill="#F9A825"/>
    <circle cx="4" cy="-18" r="2" fill="#F9A825"/>
    <circle cx="0" cy="-12" r="2" fill="#F9A825"/>
    <circle cx="-6" cy="-12" r="1.5" fill="#F9A825"/>
    <circle cx="6" cy="-12" r="1.5" fill="#F9A825"/>
    <circle cx="0" cy="-20" r="1.5" fill="#F9A825"/>

    <!-- Small leaves under lotus -->
    <path d="M-70,15 Q-45,-5 -20,12 Q-45,22 -70,15Z" fill="url(#leafGrad)" opacity="0.85"/>
    <path d="M70,15 Q45,-5 20,12 Q45,22 70,15Z" fill="url(#leafGrad)" opacity="0.85"/>

    <!-- Leaf veins -->
    <path d="M-65,14 Q-42,6 -25,13" fill="none" stroke="#2E7D32" stroke-width="0.8" opacity="0.5"/>
    <path d="M65,14 Q42,6 25,13" fill="none" stroke="#2E7D32" stroke-width="0.8" opacity="0.5"/>
  </g>



</svg>